<svg xmlns="http://www.w3.org/2000/svg" viewBox="0 0 493.18 145.54">
  <defs>
    <path id="reuse-0" fill-rule="nonzero" d="M40.5 38.32h2.87v7.75h17.25v-7.75h2.87l-2.89-2.9v-5.07h-1.8v3.28l-6.81-6.81z" class="fill-black"/>
    <style>
    path{color:#000;fill:currentColor;stroke:currentColor;stroke-linecap:round;stroke-linejoin:round}
    @media(prefers-color-scheme:dark) {path{color:#fff}}
    </style>      
  </defs>  
    <path d="M0 145.54V128.1h50.98V94.63H.03V26.42H67.8v16.97H17.34v33.78h50.55v68.38H0Zm425.06 0c.04-2.27.12-4.54.11-6.81 0-3.95-.09-7.9-.11-11.86-.05-9.58-.08-19.17-.13-28.75-.03-6.39-.08-12.78-.12-19.16v-1.48h68.36v17.01c-.16-.01-.32-.04-.48-.04h-49.51c-.31 0-.62.05-1.13.09v16.69h49.57c.52 0 1.04.02 1.56.04v17.01c-.16-.01-.32-.04-.48-.04h-49.52c-.3 0-.61.06-.98.1v16.01c0 .39.07.79.11 1.18h-17.27Zm-84.68 0c-.04-.39-.11-.79-.12-1.18-.06-12.9-.1-25.79-.17-38.69-.05-8.9-.13-17.8-.2-26.71v-1.39h68.29v16.84h-50.95v16.78h50.94v17.05h-50.79c-.04.33-.09.56-.09.78v15.81c0 .23.07.47.11.7h-17.03ZM323.16 77.3v67.94h-68.09V77.3h68.09Zm-17.09 17.25h-33.73v33.65h33.73V94.55ZM152.94 77.71v67.51H84.87V77.71h68.07ZM101.78 94.5v33.7h34.38V94.5h-34.38Zm68.15 50.53V77.68h67.98v67.34h-16.86V94.53h-34.13v50.5h-16.98Zm-59.34-75.59c-1.54-1.29-3.01-2.51-4.47-3.74-.15-.12-.26-.28-.28-.3 14.71-20.53 14.73-40.89-.02-61.44 1.49-1.26 3.1-2.61 4.7-3.96 15.93 17.53 18.1 48.53.08 69.44Z"/>
    <path d="M93.32 14.43c1.58-1.33 3.19-2.68 4.8-4.03 11.6 12.94 12.28 34.61.03 48.63-1.62-1.36-3.23-2.71-4.83-4.06 9.7-13.49 9.71-26.92 0-40.54Zm-7.61 34.16-4.89-4.1c4.69-6.55 4.68-13.04 0-19.58 1.62-1.35 3.23-2.71 4.84-4.06 6.39 6.54 7.41 19.52.06 27.75Z"/>
</svg>
